<svg width="703" height="604" viewBox="0 0 703 604" fill="none" xmlns="http://www.w3.org/2000/svg">
<g opacity="0.15">
<path d="M3 600.723H665" stroke="#474747" stroke-width="6" stroke-miterlimit="10" stroke-linecap="round" stroke-linejoin="round"/>
<path d="M566.524 600.723V275.427" stroke="#474747" stroke-width="6" stroke-miterlimit="10" stroke-linecap="round" stroke-linejoin="round"/>
<path d="M592.592 187.112C616.867 218.643 679.958 420.035 566.524 420.035C453.09 420.035 516.181 218.643 540.456 187.112C548.937 176.097 558.838 171.329 566.524 171.329C574.21 171.329 584.111 176.096 592.592 187.112Z" stroke="#474747" stroke-width="6" stroke-miterlimit="10" stroke-linecap="round" stroke-linejoin="round"/>
<path d="M566.524 325.456L591.722 300.258" stroke="#474747" stroke-width="6" stroke-miterlimit="10" stroke-linecap="round" stroke-linejoin="round"/>
<path d="M566.524 384.166L532.245 349.887" stroke="#474747" stroke-width="6" stroke-miterlimit="10" stroke-linecap="round" stroke-linejoin="round"/>
<path d="M649.662 458.458C676.938 458.458 699.049 436.347 699.049 409.071C699.049 381.795 676.938 359.684 649.662 359.684C622.386 359.684 600.275 381.795 600.275 409.071C600.275 436.347 622.386 458.458 649.662 458.458Z" fill="white"/>
<path d="M649.662 458.458C676.938 458.458 699.049 436.347 699.049 409.071C699.049 381.795 676.938 359.684 649.662 359.684C622.386 359.684 600.275 381.795 600.275 409.071C600.275 436.347 622.386 458.458 649.662 458.458Z" stroke="#474747" stroke-width="6" stroke-miterlimit="10" stroke-linecap="round" stroke-linejoin="round"/>
<path d="M566.524 492.275L657.889 400.91" stroke="#474747" stroke-width="6" stroke-miterlimit="10" stroke-linecap="round" stroke-linejoin="round"/>
<path d="M659.822 438.075H620.723" stroke="#474747" stroke-width="6" stroke-miterlimit="10" stroke-linecap="round" stroke-linejoin="round"/>
<path d="M640.273 418.526V400.91" stroke="#474747" stroke-width="6" stroke-miterlimit="10" stroke-linecap="round" stroke-linejoin="round"/>
<path d="M566.524 551.751L484.464 469.691" stroke="#474747" stroke-width="6" stroke-miterlimit="10" stroke-linecap="round" stroke-linejoin="round"/>
<path d="M530.247 521.205C548.901 507.133 548.518 475.17 529.391 449.814C510.264 424.458 479.635 415.31 460.98 429.383C442.326 443.455 442.709 475.418 461.836 500.774C480.963 526.13 511.592 535.277 530.247 521.205Z" stroke="#474747" stroke-width="6" stroke-miterlimit="10" stroke-linecap="round" stroke-linejoin="round"/>
<path d="M525.794 511.022V484.537" stroke="#474747" stroke-width="6" stroke-miterlimit="10" stroke-linecap="round" stroke-linejoin="round"/>
<path d="M484.464 490.001H504.774" stroke="#474747" stroke-width="6" stroke-miterlimit="10" stroke-linecap="round" stroke-linejoin="round"/>
<path d="M94.675 541.925H72.371V597.103H94.675V541.925Z" stroke="#474747" stroke-width="6" stroke-miterlimit="10" stroke-linecap="round" stroke-linejoin="round"/>
<path d="M325.276 541.925H302.972V597.103H325.276V541.925Z" stroke="#474747" stroke-width="6" stroke-miterlimit="10" stroke-linecap="round" stroke-linejoin="round"/>
<path d="M102.36 398.455H86.7469V516.753H102.36V398.455Z" stroke="#474747" stroke-width="6" stroke-miterlimit="10" stroke-linecap="round" stroke-linejoin="round"/>
<path d="M310.9 398.455H295.287V516.753H310.9V398.455Z" stroke="#474747" stroke-width="6" stroke-miterlimit="10" stroke-linecap="round" stroke-linejoin="round"/>
<path d="M348.055 416.531H35.804V449.987H348.055V416.531Z" fill="white"/>
<path d="M348.055 416.531H35.804V449.987H348.055V416.531Z" stroke="#474747" stroke-width="6" stroke-miterlimit="10" stroke-linecap="round" stroke-linejoin="round"/>
<path d="M348.055 449.987H35.804V483.443H348.055V449.987Z" fill="white"/>
<path d="M348.055 449.987H35.804V483.443H348.055V449.987Z" stroke="#474747" stroke-width="6" stroke-miterlimit="10" stroke-linecap="round" stroke-linejoin="round"/>
<path d="M303.093 438.949C305.557 438.949 307.554 436.952 307.554 434.488C307.554 432.024 305.557 430.027 303.093 430.027C300.629 430.027 298.632 432.024 298.632 434.488C298.632 436.952 300.629 438.949 303.093 438.949Z" stroke="#474747" stroke-width="6" stroke-miterlimit="10" stroke-linecap="round" stroke-linejoin="round"/>
<path d="M303.093 471.176C305.557 471.176 307.554 469.179 307.554 466.715C307.554 464.251 305.557 462.254 303.093 462.254C300.629 462.254 298.632 464.251 298.632 466.715C298.632 469.179 300.629 471.176 303.093 471.176Z" stroke="#474747" stroke-width="6" stroke-miterlimit="10" stroke-linecap="round" stroke-linejoin="round"/>
<path d="M94.5539 438.949C97.0176 438.949 99.0149 436.952 99.0149 434.488C99.0149 432.024 97.0176 430.027 94.5539 430.027C92.0902 430.027 90.0929 432.024 90.0929 434.488C90.0929 436.952 92.0902 438.949 94.5539 438.949Z" stroke="#474747" stroke-width="6" stroke-miterlimit="10" stroke-linecap="round" stroke-linejoin="round"/>
<path d="M94.5539 471.176C97.0176 471.176 99.0149 469.179 99.0149 466.715C99.0149 464.251 97.0176 462.254 94.5539 462.254C92.0902 462.254 90.0929 464.251 90.0929 466.715C90.0929 469.179 92.0902 471.176 94.5539 471.176Z" stroke="#474747" stroke-width="6" stroke-miterlimit="10" stroke-linecap="round" stroke-linejoin="round"/>
<path d="M373.276 516.753H19.7629V541.924H373.276V516.753Z" stroke="#474747" stroke-width="6" stroke-miterlimit="10" stroke-linecap="round" stroke-linejoin="round"/>
</g>
<path d="M255.997 564.62L259.955 593.243C260.547 597.525 264.551 600.724 269.323 600.724H397.5C402.272 600.724 406.276 597.525 406.868 593.243L410.826 564.62H255.997Z" fill="#87DDFD"/>
<path d="M394.739 600.723L404.069 598.311L410.826 564.62H255.997L257.518 575.621H385.315C385.383 575.621 385.451 575.621 385.519 575.621C403.791 575.621 394.739 600.723 394.739 600.723Z" fill="#BABABA"/>
<path d="M426.342 554.936L461.304 275.426H205.52L240.482 554.936C241.175 560.478 245.946 564.62 251.644 564.62H415.18C420.877 564.62 425.648 560.478 426.342 554.936Z" fill="#5E9AB1"/>
<path d="M426.342 554.936L461.304 275.426H205.52L240.482 554.936C241.175 560.478 245.946 564.62 251.644 564.62H415.18C420.877 564.62 425.648 560.478 426.342 554.936Z" fill="#5E9AB1"/>
<path opacity="0.34" d="M326.295 504.194C323.765 504.194 321.91 502.901 321.23 502.344C319.057 500.565 317.73 497.498 317.59 493.931C317.415 489.501 319.001 485.235 321.831 482.519C322.592 481.79 324.905 479.568 327.918 479.568C328.231 479.568 328.545 479.592 328.853 479.641C330.818 479.953 332.664 481.285 334.05 483.391C336.206 486.667 336.979 491.219 336.018 494.989C334.907 499.345 331.199 504.052 326.513 504.191L326.295 504.194ZM327.285 490.439C326.416 492.515 326.615 493.867 326.864 494.094C326.886 494.114 326.919 494.136 326.953 494.156C327.068 494.029 327.268 493.747 327.447 493.246C327.777 492.324 327.582 491.193 327.285 490.439Z" fill="#608FA0"/>
<path opacity="0.34" d="M337.92 516.587C336.592 516.587 335.338 516.216 334.294 515.515C332.055 514.01 332.221 512.039 332.839 504.709C333.23 500.068 333.821 493.055 334.318 482.003C334.343 481.44 334.377 480.876 334.418 480.316C334.354 480.315 334.29 480.314 334.227 480.314C333.992 480.314 333.764 480.324 333.545 480.344C332.751 480.418 331.955 480.45 331.159 480.481C330.295 480.514 329.478 480.546 328.68 480.636C328.346 480.674 328.05 480.711 327.789 480.744C327.165 480.823 326.714 480.88 326.283 480.88C325.387 480.88 324.657 480.593 324.114 480.026C322.054 477.88 324.311 473.398 326.048 471.698C327.407 470.366 329.301 469.691 331.677 469.691C332.998 469.691 334.512 469.898 336.269 470.32C337.389 467.142 338.976 464.83 341.001 463.43C341.825 462.861 344.014 461.348 346.919 461.348C347.318 461.348 347.721 461.377 348.114 461.436C348.738 461.529 350.636 461.811 352.187 463.374C353.717 464.917 354.095 466.824 354.118 468.261C354.881 467.997 355.765 467.807 356.741 467.807C357.1 467.807 357.461 467.834 357.813 467.886C358.378 467.971 360.089 468.227 361.494 469.641C363.813 471.981 363.21 475.237 363.065 475.866L362.672 477.574C362.998 477.435 363.276 477.256 363.506 477.033C364.11 476.452 364.471 475.517 364.578 474.255L364.928 470.147L370.071 474.956L370.232 475.279C371.132 477.081 370.526 479.409 368.48 482.012C366.977 483.929 364.093 484.862 359.664 484.862C358.332 484.862 356.87 484.777 355.299 484.61C354.693 489.516 354.82 494.875 354.821 494.935C354.874 496.97 354.934 498.787 354.989 500.409C355.286 509.278 355.409 512.949 352.548 515.047C351.54 515.786 350.261 516.193 348.946 516.193C347.743 516.193 346.604 515.856 345.655 515.218C344.652 514.545 344.17 513.789 344 512.454C343.562 513.678 342.893 514.592 341.896 515.321C340.786 516.138 339.373 516.587 337.92 516.587ZM344.724 482.543C344.281 487.548 344.395 492.31 344.396 492.364C344.457 494.711 344.527 496.806 344.589 498.678C344.614 499.448 344.64 500.183 344.661 500.886C344.945 497.184 345.269 492.351 345.557 485.955C345.606 484.871 345.683 483.823 345.787 482.821C345.431 482.729 345.076 482.637 344.724 482.543ZM357.556 477.561C358.714 477.805 359.713 477.926 360.576 477.926C360.897 477.926 361.196 477.909 361.474 477.875L360.175 477.183C359.79 476.978 359.4 476.87 359.044 476.87C358.96 476.87 358.872 476.876 358.782 476.89C358.688 476.912 358.148 477.059 357.556 477.561ZM347.828 474.339C348.378 473.111 349.026 472.063 349.768 471.199C349.704 471.194 349.64 471.191 349.577 471.191C349.454 471.191 349.325 471.201 349.193 471.222C349.186 471.225 348.18 471.442 347.231 472.474C347.056 472.664 346.773 473.053 346.452 473.802C346.452 473.803 347.467 474.198 347.828 474.339Z" fill="#608FA0"/>
<path opacity="0.34" d="M360.506 506.655C358.219 506.655 356.243 505.938 354.943 504.636C353.019 502.711 352.392 499.275 353.222 495.208C354.123 490.794 357.048 484.884 362.325 482.758C362.829 482.555 364.633 481.893 366.68 481.893C368.592 481.893 370.211 482.445 371.493 483.533C374.007 485.67 374.429 489.205 373.731 491.76C373.017 494.371 371.086 496.093 368.905 497.181C369.154 497.488 369.382 497.93 369.452 498.553C369.618 500.022 368.871 502.491 367.16 504.171C365.573 505.726 363.087 506.655 360.506 506.655ZM365.6 489.829C365.317 489.932 364.974 490.132 364.616 490.398C365.004 490.211 365.338 490.014 365.6 489.829Z" fill="#608FA0"/>
<path opacity="0.34" d="M376.602 507.067C374.254 507.067 372.032 506.223 370.656 504.81C368.757 502.86 368.115 499.572 368.895 495.789C369.892 490.95 372.879 486.854 376.503 485.355C377.764 484.834 379.284 484.537 380.675 484.537C382.941 484.537 384.791 485.278 386.025 486.681C388.257 489.219 387.448 492.713 387.147 493.723C386.52 495.829 385.139 497.43 383.454 498.542C383.745 498.856 384.027 499.343 384.096 500.07C384.228 501.484 383.511 503.767 381.922 505.214C380.606 506.41 378.717 507.067 376.602 507.067Z" fill="#608FA0"/>
<path opacity="0.34" d="M303.411 515.021C301.824 515.021 300.271 514.793 298.797 514.345C293.843 512.837 289.846 508.753 287.54 502.847C285.047 496.459 285.795 488.359 289.425 481.077C287.942 481.366 286.63 482.167 285.446 482.89C284.175 483.667 283.077 484.337 281.828 484.337C281.143 484.337 280.496 484.124 279.956 483.719C278.81 482.865 278.241 481.255 278.354 479.19C278.483 476.836 279.58 473.528 282.248 471.956C283.249 471.366 284.421 471.067 285.731 471.067C288.344 471.067 291.327 472.244 294.437 473.69C297.464 470.336 300.937 467.977 304.554 466.832C306.566 466.194 308.548 465.857 310.286 465.857C312.93 465.857 314.952 466.629 316.298 468.152C319.277 471.526 317.926 477.637 314.794 481.227C313.288 482.955 310.459 485.075 305.538 485.363C305.27 485.379 305.012 485.386 304.759 485.386C302.811 485.386 301.24 484.944 299.422 484.431C298.969 484.303 298.538 484.17 298.125 484.033C296.187 490.738 297.076 497.891 300.37 500.63C301.38 501.47 303.094 502.367 304.875 502.367C305.267 502.367 305.648 502.323 306.011 502.236C306.124 502.21 308.771 501.553 309.342 499.439C309.622 498.4 309.401 497.174 308.803 496.459C308.382 495.957 307.78 495.712 307.247 495.497C306.652 495.255 305.071 494.614 305.215 492.922C305.376 491.007 307.766 490.135 309.918 490.135C310.528 490.135 311.119 490.207 311.676 490.351C316.307 491.544 319.653 498.076 318.562 503.789C317.645 508.578 314.016 511.185 312.824 512.041C310.147 513.964 306.804 515.021 303.411 515.021ZM301.45 477.223C302.685 477.866 303.428 478.157 304.294 478.157C304.47 478.157 304.652 478.145 304.845 478.122C306.569 477.912 308.578 476.882 309.082 475.32C309.345 474.508 309.254 473.725 309.119 473.587C309.081 473.547 308.853 473.436 308.326 473.436C307.16 473.436 305.625 473.964 304.621 474.487L304.476 474.565C303.4 475.151 302.375 476.055 301.45 477.223Z" fill="#608FA0"/>
<path d="M205.52 275.426L208.27 297.409H421.032C429.162 297.409 435.453 304.535 434.444 312.603L412.265 542.583C411.415 551.402 404.798 558.577 396.077 560.138L371.03 564.621L406.65 564.645L406.656 564.621H415.18C420.878 564.621 425.649 560.479 426.343 554.937L461.305 275.427H205.52V275.426Z" fill="#608FA0"/>
<path d="M255.997 564.62L259.955 593.243C260.547 597.525 264.551 600.724 269.323 600.724H397.5C402.272 600.724 406.276 597.525 406.868 593.243L410.826 564.62H255.997Z" stroke="#474747" stroke-width="6" stroke-miterlimit="10" stroke-linecap="round" stroke-linejoin="round"/>
<path d="M426.342 554.936L461.304 275.426H205.52L240.482 554.936C241.175 560.478 245.946 564.62 251.644 564.62H415.18C420.877 564.62 425.648 560.478 426.342 554.936Z" stroke="#474747" stroke-width="6" stroke-miterlimit="10" stroke-linecap="round" stroke-linejoin="round"/>
<path d="M466.808 275.426C377.877 275.426 288.946 275.426 200.015 275.426C191.325 275.505 192.521 270.84 195.532 261.884C197.326 256.62 197.326 250.907 195.532 245.643C192.521 236.687 191.325 232.022 200.015 232.101C288.946 232.101 377.877 232.101 466.808 232.101C475.498 232.022 474.302 236.687 471.291 245.643C469.497 250.907 469.497 256.62 471.291 261.884C474.302 270.84 475.498 275.505 466.808 275.426Z" fill="#646464"/>
<path d="M471.291 245.643C473.235 239.86 474.418 235.869 472.676 233.787C472.301 235.104 471.826 236.556 471.291 238.147C469.984 241.981 469.641 246.052 470.238 250.016C470.46 248.537 470.803 247.073 471.291 245.643ZM196.585 250.015C197.182 246.052 196.839 241.98 195.532 238.146C194.997 236.556 194.522 235.103 194.147 233.786C192.405 235.869 193.588 239.86 195.532 245.642C196.02 247.073 196.362 248.537 196.585 250.015ZM472.676 266.244C471.72 267.387 469.887 267.957 466.808 267.929C377.877 267.929 288.946 267.929 200.015 267.929C196.936 267.957 195.103 267.387 194.147 266.244C192.41 272.344 192.868 275.491 200.015 275.426C288.946 275.426 377.877 275.426 466.808 275.426C473.955 275.491 474.413 272.344 472.676 266.244Z" fill="#7C7C7C"/>
<path d="M471.291 261.884C471.128 261.405 470.996 260.919 470.863 260.433C469.568 265.145 469.667 270.137 471.168 274.804C474.889 273.265 473.645 268.886 471.291 261.884Z" fill="#646464"/>
<path d="M196.862 255.546C197.9 255.116 201.772 245.441 207.757 245.441C296.688 245.441 372.372 245.441 461.303 245.441C468.542 245.441 469.823 260.003 470.862 260.433C470.907 260.294 471.243 245.781 471.29 245.643C474.303 236.68 475.499 232.015 466.787 232.102C377.94 232.103 289.132 232.104 200.285 232.106C191.3 231.928 192.49 236.596 195.532 245.644C195.58 245.782 196.818 255.408 196.862 255.546Z" fill="#646464"/>
<path d="M195.656 274.804C197.156 270.137 197.256 265.145 195.961 260.433C195.827 260.919 195.696 261.405 195.533 261.884C193.178 268.886 191.934 273.265 195.656 274.804Z" fill="#646464"/>
<path d="M466.808 275.426C377.877 275.426 288.946 275.426 200.015 275.426C191.325 275.505 192.521 270.84 195.532 261.884C197.326 256.62 197.326 250.907 195.532 245.643C192.521 236.687 191.325 232.022 200.015 232.101C288.946 232.101 377.877 232.101 466.808 232.101C475.498 232.022 474.302 236.687 471.291 245.643C469.497 250.907 469.497 256.62 471.291 261.884C474.302 270.84 475.498 275.505 466.808 275.426Z" stroke="#474747" stroke-width="6" stroke-miterlimit="10" stroke-linecap="round" stroke-linejoin="round"/>
<path d="M459.065 232.102H207.758L210.218 223.334C214.143 209.346 227.511 199.609 242.79 199.609H424.033C439.313 199.609 452.68 209.346 456.605 223.334L459.065 232.102Z" fill="#87DDFD"/>
<path d="M459.065 232.102H207.758L210.218 223.334C214.143 209.346 227.511 199.609 242.79 199.609H424.033C439.313 199.609 452.68 209.346 456.605 223.334L459.065 232.102Z" fill="#87DDFD"/>
<path d="M260.494 209.963L431.977 209.911C444.377 209.911 452.017 218.842 455.428 219.936C449.377 210.849 435.833 199.609 424.033 199.609H242.79C227.511 199.609 214.143 209.346 210.218 223.334L207.758 232.102H229.553C234.812 220.54 246.893 209.963 260.494 209.963Z" fill="white"/>
<path d="M459.065 232.102H207.758L210.218 223.334C214.143 209.346 227.511 199.609 242.79 199.609H424.033C439.313 199.609 452.68 209.346 456.605 223.334L459.065 232.102Z" stroke="#474747" stroke-width="6" stroke-miterlimit="10" stroke-linecap="round" stroke-linejoin="round"/>
<path d="M409.571 199.609H340.967V193.204C340.967 185.775 346.99 179.752 354.419 179.752H396.119C403.548 179.752 409.571 185.775 409.571 193.204V199.609Z" fill="#87DDFD"/>
<path d="M409.571 199.609H340.967V193.204C340.967 185.775 346.99 179.752 354.419 179.752H396.119C403.548 179.752 409.571 185.775 409.571 193.204V199.609Z" fill="#87DDFD"/>
<path d="M341.083 199.394C341.083 192.315 346.821 186.577 353.9 186.577H396.869C403.393 186.577 408.767 191.455 409.571 197.761V192.57C409.571 185.491 403.832 179.753 396.754 179.753H353.785C346.706 179.753 340.968 185.491 340.968 192.57V199.61H341.083V199.394Z" fill="white"/>
<path d="M325.275 434.407C314.652 434.407 295.514 426.907 289.336 406.79C283.317 390.377 285.889 371.14 296.052 356.571C303.432 345.993 313.527 339.925 323.747 339.925C326.869 339.925 329.977 340.494 332.986 341.616L333.133 341.672L333.271 341.749C335.397 342.951 336.611 344.358 336.982 346.054C337.615 348.944 335.655 351.659 333.172 355.098C328.193 361.998 321.372 371.448 328.075 388.888C335.843 409.102 335.886 428.277 331.066 432.843C329.97 433.882 328.022 434.407 325.275 434.407Z" fill="#608FA0"/>
<path d="M409.571 199.609H340.967V193.204C340.967 185.775 346.99 179.752 354.419 179.752H396.119C403.548 179.752 409.571 185.775 409.571 193.204V199.609Z" stroke="#474747" stroke-width="6" stroke-miterlimit="10" stroke-linecap="round" stroke-linejoin="round"/>
<path d="M352.773 434.144C348.877 434.144 345.241 432.646 342.795 430.034C340.648 427.74 339.577 424.785 339.779 421.712C340.306 413.733 337.584 406.1 334.951 398.719C332.551 391.99 330.283 385.633 330.267 379.014C330.209 354.65 346.553 346.928 348.571 346.069C349.862 345.294 351.334 344.901 352.947 344.901C359.448 344.901 367.417 351.297 373.247 361.195C377.139 367.801 388.665 391.47 373.586 418.676C368.138 428.507 360.552 434.144 352.773 434.144Z" fill="#608FA0"/>
<path d="M333.286 340.491C345.078 347.157 315.202 355.367 327.208 386.607C335.406 407.941 334.206 425.061 330.69 428.392C327.174 431.723 299.746 427.745 292.231 403.152C279.827 369.437 306.795 330.607 333.286 340.491Z" fill="#E4F3F9"/>
<path d="M350.484 344.856C350.484 344.856 333.211 351.667 333.268 376.009C333.3 389.618 343.803 403.268 342.775 418.844C342.061 429.663 360.588 436.806 372.836 414.706C394.419 375.765 362.431 337.311 350.484 344.856Z" fill="#E4F3F9"/>
<path d="M322.216 481.963C317.606 486.387 317.388 495.434 321.497 498.797C321.792 499.038 323.336 500.255 325.454 500.192C329.248 500.079 332.202 495.938 333.08 492.494C334.455 487.101 331.55 480.252 327.54 479.616C325.068 479.225 322.897 481.309 322.216 481.963ZM328.331 491.919C328.226 492.214 327.589 493.998 326.245 494.185C325.349 494.31 324.613 493.659 324.518 493.573C323.306 492.469 323.382 489.943 324.626 487.242C325.397 486.016 325.982 485.774 326.389 485.803C327.776 485.904 329.255 489.328 328.331 491.919Z" fill="#E4F3F9"/>
<path d="M334.41 511.854C332.277 510.421 334.095 507.281 335.316 480.093C335.653 472.593 337.226 465.782 341.138 463.077C341.912 462.542 344.121 461.014 346.82 461.415C347.392 461.5 348.707 461.714 349.767 462.783C351.643 464.675 351.035 467.545 350.971 467.825C350.378 467.509 349.235 467.022 347.866 467.249C347.866 467.249 346.231 467.521 344.761 469.119C340.956 473.255 341.397 490.414 341.397 490.414C341.763 504.676 342.493 509.671 339.715 511.709C338.265 512.773 336.006 512.926 334.41 511.854Z" fill="#E4F3F9"/>
<path d="M345.77 511.559C343.922 510.318 345.497 507.598 346.555 484.046C346.847 477.549 348.21 471.649 351.599 469.306C352.27 468.842 354.183 467.519 356.521 467.867C357.017 467.941 358.156 468.126 359.074 469.052C360.699 470.691 360.172 473.177 360.117 473.42C359.604 473.147 358.613 472.724 357.427 472.921C357.427 472.921 356.011 473.156 354.737 474.541C351.441 478.124 351.823 492.987 351.823 492.987C352.14 505.342 352.773 509.668 350.366 511.434C349.11 512.355 347.153 512.487 345.77 511.559Z" fill="#E4F3F9"/>
<path d="M362.647 498.442C361.79 498.664 360.512 498.667 359.673 498.058C357.579 496.538 358.238 491.211 360.92 488.178C361.294 487.755 363.669 485.158 365.716 485.876C366.334 486.093 367.1 486.673 367.155 487.411C367.278 489.064 363.79 491.017 360.632 491.248C358.896 491.375 357.49 490.964 356.699 490.672C355.774 491.964 355.92 492.752 356.027 493.07C356.672 494.985 360.957 494.824 361.539 494.797C361.912 494.779 369.411 494.318 370.799 489.234C371.325 487.308 371.006 484.597 369.195 483.059C366.622 480.874 362.617 482.395 362.07 482.616C355.017 485.457 351.725 497.591 355.356 501.225C357.47 503.34 362.404 503.055 364.756 500.745C366.358 499.172 366.75 496.673 366.298 496.394C365.87 496.129 364.857 497.87 362.647 498.442Z" fill="#E4F3F9"/>
<path d="M377.697 499.687C376.934 499.884 375.798 499.887 375.052 499.346C373.176 497.984 373.919 493.295 376.161 490.557C376.506 490.136 378.168 488.106 379.53 488.562C380.192 488.784 380.707 489.569 380.681 490.289C380.623 491.881 377.921 493.074 375.905 493.288C374.37 493.451 373.113 493.06 372.406 492.776C371.583 493.925 371.713 494.626 371.809 494.909C372.31 496.398 375.248 496.56 376.713 496.445C379.333 496.24 383.178 494.686 384.23 491.152C384.363 490.706 385.157 487.858 383.524 486.002C381.771 484.009 378.285 484.371 376.269 485.205C370.419 487.624 367.626 497.859 371.089 501.416C373.072 503.453 377.458 503.661 379.575 501.736C381.035 500.409 381.359 498.119 380.947 497.866C380.564 497.63 379.662 499.178 377.697 499.687Z" fill="#E4F3F9"/>
<path d="M365.572 472.425C365.466 473.677 365.106 475.31 363.894 476.475C357.012 483.093 333.17 464.547 326.447 471.127C324.993 472.551 323.713 475.763 324.557 476.643C324.944 477.046 325.612 476.858 327.454 476.65C329.08 476.466 330.725 476.507 332.354 476.354C336.338 475.979 342.417 478.371 348.74 479.709C350.332 480.046 362.898 482.615 365.907 478.778C366.286 478.294 368.25 475.79 367.442 474.174C366.82 473.591 366.196 473.008 365.572 472.425Z" fill="#E4F3F9"/>
<path d="M295.598 474.941C299.863 477.01 301.291 478.447 304.087 478.106C306.306 477.836 309.166 476.473 309.986 473.933C310.311 472.928 310.5 471.166 309.554 470.192C308.112 468.706 304.654 469.692 302.697 470.712C302.697 470.712 302.59 470.769 302.504 470.816C293.847 475.537 291.094 494.349 298.092 500.168C299.847 501.628 302.708 502.846 305.478 502.182C305.882 502.085 309.412 501.151 310.274 497.961C310.7 496.384 310.416 494.466 309.339 493.177C308.055 491.64 306.165 491.62 306.21 491.091C306.256 490.543 308.341 489.814 310.179 490.288C313.733 491.204 316.509 496.655 315.599 501.415C314.833 505.421 311.695 507.674 310.659 508.417C307.073 510.991 302.371 511.646 298.381 510.431C291.627 508.376 288.972 501.571 288.405 500.119C283.499 487.551 292.732 470.358 304.16 466.738C305.002 466.471 311.183 464.513 313.801 467.477C316.029 469.999 314.775 475.063 312.289 477.913C309.538 481.067 305.456 481.306 304.423 481.366C302.428 481.483 300.952 481.066 298.955 480.503C293.855 479.063 293.521 477.469 290.706 477.05C285.295 476.244 281.934 481.45 280.155 480.12C278.579 478.941 279.299 473.427 282.265 471.679C285.242 469.924 290.022 472.236 295.598 474.941Z" fill="#E4F3F9"/>
<path d="M410.662 54.376C402.907 65.243 394.251 68.001 387.712 80.634C385.907 84.12 380.606 94.362 382.212 106.634C384.338 122.878 396.52 127.035 397.712 141.634C398.254 148.272 396.459 156.27 389.712 165.634" stroke="#474747" stroke-width="6" stroke-miterlimit="10" stroke-linecap="round" stroke-linejoin="round"/>
<path d="M435.711 3.134C441.817 28.453 437.432 44.038 432.211 53.634C422.687 71.139 405.382 77.901 404.211 95.523C403.658 103.843 406.95 110.837 409.571 115.191" stroke="#474747" stroke-width="6" stroke-miterlimit="10" stroke-linecap="round" stroke-linejoin="round"/>
<path d="M378.378 63.134C378.378 63.134 366.378 77.134 366.378 89.801" stroke="#474747" stroke-width="6" stroke-miterlimit="10" stroke-linecap="round" stroke-linejoin="round"/>
</svg>
