<svg width="257" height="256" viewBox="0 0 257 256" fill="none" xmlns="http://www.w3.org/2000/svg">
<path d="M104.306 41.1552C103.315 40.1554 102.135 39.3619 100.835 38.8203C99.5353 38.2788 98.1411 38 96.733 38C95.3248 38 93.9307 38.2788 92.6308 38.8203C91.331 39.3619 90.1512 40.1554 89.1596 41.1552L35.8263 94.4885C34.8265 95.4801 34.033 96.6599 33.4915 97.9597C32.9499 99.2595 32.6711 100.654 32.6711 102.062C32.6711 103.47 32.9499 104.864 33.4915 106.164C34.033 107.464 34.8265 108.644 35.8263 109.635L89.1596 162.969C90.1512 163.968 91.331 164.762 92.6308 165.303C93.9307 165.845 95.3248 166.124 96.733 166.124C98.1411 166.124 99.5353 165.845 100.835 165.303C102.135 164.762 103.315 163.968 104.306 162.969C105.306 161.977 106.1 160.797 106.641 159.497C107.183 158.198 107.461 156.803 107.461 155.395C107.461 153.987 107.183 152.593 106.641 151.293C106.1 149.993 105.306 148.813 104.306 147.822L58.4396 102.062L104.306 56.3019C105.306 55.3102 106.1 54.1305 106.641 52.8307C107.183 51.5308 107.461 50.1366 107.461 48.7285C107.461 47.3204 107.183 45.9262 106.641 44.6264C106.1 43.3265 105.306 42.1468 104.306 41.1552ZM221.64 94.4885L168.306 41.1552C167.312 40.1606 166.131 39.3717 164.832 38.8335C163.532 38.2952 162.139 38.0182 160.733 38.0182C157.892 38.0182 155.168 39.1466 153.16 41.1552C152.165 42.1497 151.376 43.3304 150.838 44.6299C150.3 45.9293 150.023 47.322 150.023 48.7285C150.023 51.5691 151.151 54.2933 153.16 56.3019L199.026 102.062L153.16 147.822C152.16 148.813 151.366 149.993 150.825 151.293C150.283 152.593 150.004 153.987 150.004 155.395C150.004 156.803 150.283 158.198 150.825 159.497C151.366 160.797 152.16 161.977 153.16 162.969C154.151 163.968 155.331 164.762 156.631 165.303C157.931 165.845 159.325 166.124 160.733 166.124C162.141 166.124 163.535 165.845 164.835 165.303C166.135 164.762 167.315 163.968 168.306 162.969L221.64 109.635C222.639 108.644 223.433 107.464 223.975 106.164C224.516 104.864 224.795 103.47 224.795 102.062C224.795 100.654 224.516 99.2595 223.975 97.9597C223.433 96.6599 222.639 95.4801 221.64 94.4885Z" fill="url(#paint0_linear_1_719)"/>
<path d="M124.973 86.6285L106.173 105.402L98.5996 98.2285L121.4 75.4285L142.6 96.6285L138.813 100.415L124.973 86.6285ZM158.706 98.0685L136.066 75.4285L130.573 80.9219L146.306 96.6019L138.76 104.149L124.973 90.3619L108.253 107.082L112.04 110.842L126.226 96.6552L128.12 98.5485L113.933 112.735L117.72 116.495L131.906 102.309L133.8 104.202L119.613 118.389L123.373 122.149L137.56 107.962L139.453 109.855L125.213 124.095L128.973 127.855L158.706 98.0685Z" fill="url(#paint1_linear_1_719)"/>
<path d="M58.0625 195.8H49.5398C49.4261 194.925 49.1932 194.136 48.8409 193.431C48.4886 192.727 48.0227 192.124 47.4432 191.624C46.8636 191.124 46.1761 190.744 45.3807 190.482C44.5966 190.21 43.7273 190.073 42.7727 190.073C41.0795 190.073 39.6193 190.488 38.392 191.318C37.1761 192.147 36.2386 193.346 35.5795 194.914C34.9318 196.482 34.608 198.38 34.608 200.607C34.608 202.925 34.9375 204.869 35.5966 206.437C36.267 207.994 37.2045 209.17 38.4091 209.965C39.625 210.749 41.0625 211.141 42.7216 211.141C43.6534 211.141 44.5 211.022 45.2614 210.783C46.0341 210.545 46.7102 210.198 47.2898 209.744C47.8807 209.278 48.3636 208.715 48.7386 208.056C49.125 207.386 49.392 206.63 49.5398 205.789L58.0625 205.84C57.9148 207.386 57.4659 208.908 56.7159 210.408C55.9773 211.908 54.9602 213.278 53.6648 214.516C52.3693 215.744 50.7898 216.721 48.9261 217.448C47.0739 218.176 44.9489 218.539 42.5511 218.539C39.392 218.539 36.5625 217.846 34.0625 216.46C31.5739 215.062 29.608 213.028 28.1648 210.357C26.7216 207.687 26 204.437 26 200.607C26 196.766 26.733 193.511 28.1989 190.84C29.6648 188.17 31.6477 186.141 34.1477 184.755C36.6477 183.369 39.4489 182.675 42.5511 182.675C44.6648 182.675 46.6193 182.971 48.4148 183.562C50.2102 184.141 51.7898 184.994 53.1534 186.119C54.517 187.232 55.625 188.602 56.4773 190.227C57.3295 191.852 57.858 193.71 58.0625 195.8Z" fill="#2E3E60"/>
<path d="M75.1122 218.556C72.3622 218.556 69.9986 217.994 68.0213 216.869C66.0554 215.732 64.5384 214.153 63.4702 212.13C62.4133 210.096 61.8849 207.738 61.8849 205.056C61.8849 202.363 62.4133 200.005 63.4702 197.982C64.5384 195.948 66.0554 194.369 68.0213 193.244C69.9986 192.107 72.3622 191.539 75.1122 191.539C77.8622 191.539 80.2202 192.107 82.1861 193.244C84.1634 194.369 85.6804 195.948 86.7372 197.982C87.8054 200.005 88.3395 202.363 88.3395 205.056C88.3395 207.738 87.8054 210.096 86.7372 212.13C85.6804 214.153 84.1634 215.732 82.1861 216.869C80.2202 217.994 77.8622 218.556 75.1122 218.556ZM75.1634 212.266C76.1634 212.266 77.0099 211.96 77.7031 211.346C78.3963 210.732 78.9247 209.88 79.2884 208.789C79.6634 207.698 79.8509 206.437 79.8509 205.005C79.8509 203.55 79.6634 202.278 79.2884 201.187C78.9247 200.096 78.3963 199.244 77.7031 198.63C77.0099 198.016 76.1634 197.71 75.1634 197.71C74.1293 197.71 73.2543 198.016 72.5384 198.63C71.8338 199.244 71.294 200.096 70.919 201.187C70.5554 202.278 70.3736 203.55 70.3736 205.005C70.3736 206.437 70.5554 207.698 70.919 208.789C71.294 209.88 71.8338 210.732 72.5384 211.346C73.2543 211.96 74.1293 212.266 75.1634 212.266Z" fill="#2E3E60"/>
<path d="M102.172 218.437C100.24 218.437 98.4844 217.937 96.9048 216.937C95.3253 215.937 94.0639 214.437 93.1207 212.437C92.1776 210.437 91.706 207.954 91.706 204.988C91.706 201.908 92.1946 199.374 93.1719 197.386C94.1491 195.397 95.4276 193.925 97.0071 192.971C98.598 192.016 100.308 191.539 102.138 191.539C103.513 191.539 104.689 191.778 105.666 192.255C106.643 192.721 107.45 193.323 108.087 194.062C108.723 194.8 109.206 195.568 109.536 196.363H109.706V183.153H118.041V218.062H109.791V213.818H109.536C109.183 214.624 108.683 215.38 108.036 216.085C107.388 216.789 106.575 217.357 105.598 217.789C104.632 218.221 103.49 218.437 102.172 218.437ZM105.07 211.943C106.081 211.943 106.945 211.658 107.661 211.09C108.376 210.511 108.928 209.698 109.314 208.653C109.7 207.607 109.893 206.38 109.893 204.971C109.893 203.539 109.7 202.306 109.314 201.272C108.939 200.238 108.388 199.443 107.661 198.886C106.945 198.329 106.081 198.05 105.07 198.05C104.036 198.05 103.161 198.335 102.445 198.903C101.729 199.471 101.183 200.272 100.808 201.306C100.445 202.34 100.263 203.562 100.263 204.971C100.263 206.38 100.45 207.607 100.825 208.653C101.2 209.698 101.74 210.511 102.445 211.09C103.161 211.658 104.036 211.943 105.07 211.943Z" fill="#2E3E60"/>
<path d="M135.551 218.556C132.812 218.556 130.449 218.016 128.46 216.937C126.483 215.846 124.96 214.295 123.892 212.283C122.835 210.261 122.307 207.857 122.307 205.073C122.307 202.369 122.841 200.005 123.909 197.982C124.977 195.948 126.483 194.369 128.426 193.244C130.369 192.107 132.659 191.539 135.295 191.539C137.159 191.539 138.864 191.829 140.409 192.408C141.955 192.988 143.29 193.846 144.415 194.982C145.54 196.119 146.415 197.522 147.04 199.193C147.665 200.852 147.977 202.755 147.977 204.903V206.982H125.222V202.141H140.222C140.21 201.255 140 200.465 139.591 199.772C139.182 199.079 138.619 198.539 137.903 198.153C137.199 197.755 136.386 197.556 135.466 197.556C134.534 197.556 133.699 197.766 132.96 198.187C132.222 198.596 131.636 199.158 131.205 199.874C130.773 200.579 130.545 201.38 130.523 202.278V207.204C130.523 208.272 130.733 209.21 131.153 210.016C131.574 210.812 132.17 211.431 132.943 211.874C133.716 212.318 134.636 212.539 135.705 212.539C136.443 212.539 137.114 212.437 137.716 212.232C138.318 212.028 138.835 211.727 139.267 211.329C139.699 210.931 140.023 210.443 140.239 209.863L147.892 210.085C147.574 211.8 146.875 213.295 145.795 214.568C144.727 215.829 143.324 216.812 141.585 217.516C139.847 218.21 137.835 218.556 135.551 218.556Z" fill="#2E3E60"/>
<path d="M171.104 193.619C170.99 192.369 170.484 191.397 169.587 190.704C168.7 189.999 167.433 189.647 165.786 189.647C164.695 189.647 163.786 189.789 163.058 190.073C162.331 190.357 161.786 190.749 161.422 191.249C161.058 191.738 160.871 192.3 160.859 192.937C160.837 193.46 160.939 193.92 161.166 194.318C161.405 194.715 161.746 195.068 162.189 195.374C162.643 195.67 163.189 195.931 163.825 196.158C164.462 196.386 165.178 196.585 165.973 196.755L168.973 197.437C170.7 197.812 172.223 198.312 173.541 198.937C174.871 199.562 175.984 200.306 176.882 201.17C177.791 202.033 178.479 203.028 178.945 204.153C179.411 205.278 179.649 206.539 179.661 207.937C179.649 210.141 179.092 212.033 177.99 213.613C176.888 215.193 175.303 216.403 173.234 217.244C171.178 218.085 168.695 218.505 165.786 218.505C162.865 218.505 160.32 218.068 158.149 217.193C155.979 216.318 154.291 214.988 153.087 213.204C151.882 211.42 151.263 209.164 151.229 206.437H159.308C159.376 207.562 159.678 208.499 160.212 209.249C160.746 209.999 161.479 210.568 162.411 210.954C163.354 211.34 164.445 211.533 165.683 211.533C166.82 211.533 167.786 211.38 168.581 211.073C169.388 210.766 170.007 210.34 170.439 209.795C170.871 209.249 171.092 208.624 171.104 207.92C171.092 207.261 170.888 206.698 170.49 206.232C170.092 205.755 169.479 205.346 168.649 205.005C167.831 204.653 166.786 204.329 165.513 204.033L161.865 203.181C158.842 202.488 156.462 201.369 154.723 199.823C152.984 198.266 152.121 196.164 152.132 193.516C152.121 191.357 152.7 189.465 153.871 187.84C155.041 186.215 156.661 184.948 158.729 184.039C160.797 183.13 163.155 182.675 165.803 182.675C168.507 182.675 170.854 183.136 172.842 184.056C174.842 184.965 176.393 186.244 177.496 187.891C178.598 189.539 179.161 191.448 179.183 193.619H171.104Z" fill="#2E3E60"/>
<path d="M216.871 200.607C216.871 204.448 216.132 207.704 214.655 210.374C213.178 213.045 211.178 215.073 208.655 216.46C206.143 217.846 203.325 218.539 200.2 218.539C197.064 218.539 194.24 217.84 191.729 216.443C189.217 215.045 187.223 213.016 185.746 210.357C184.28 207.687 183.547 204.437 183.547 200.607C183.547 196.766 184.28 193.511 185.746 190.84C187.223 188.17 189.217 186.141 191.729 184.755C194.24 183.369 197.064 182.675 200.2 182.675C203.325 182.675 206.143 183.369 208.655 184.755C211.178 186.141 213.178 188.17 214.655 190.84C216.132 193.511 216.871 196.766 216.871 200.607ZM208.246 200.607C208.246 198.335 207.922 196.414 207.274 194.846C206.638 193.278 205.717 192.09 204.513 191.283C203.32 190.477 201.882 190.073 200.2 190.073C198.53 190.073 197.092 190.477 195.888 191.283C194.683 192.09 193.757 193.278 193.109 194.846C192.473 196.414 192.155 198.335 192.155 200.607C192.155 202.88 192.473 204.801 193.109 206.369C193.757 207.937 194.683 209.124 195.888 209.931C197.092 210.738 198.53 211.141 200.2 211.141C201.882 211.141 203.32 210.738 204.513 209.931C205.717 209.124 206.638 207.937 207.274 206.369C207.922 204.801 208.246 202.88 208.246 200.607Z" fill="#2E3E60"/>
<path d="M230.234 183.153V218.062H221.797V183.153H230.234Z" fill="#2E3E60"/>
<defs>
<linearGradient id="paint0_linear_1_719" x1="128.117" y1="38" x2="128.117" y2="218.556" gradientUnits="userSpaceOnUse">
<stop stop-color="#7797DB"/>
<stop offset="1" stop-color="#2E3E60"/>
</linearGradient>
<linearGradient id="paint1_linear_1_719" x1="128.117" y1="38" x2="128.117" y2="218.556" gradientUnits="userSpaceOnUse">
<stop stop-color="#7797DB"/>
<stop offset="1" stop-color="#2E3E60"/>
</linearGradient>
</defs>
</svg>
